<svg width="48" height="48" viewBox="0 0 48 48" fill="none" xmlns="http://www.w3.org/2000/svg">
<g clip-path="url(#clip0)">
<path d="M48.1253 31.0263V29.2603C48.1253 27.2665 46.3145 25.6443 44.0888 25.6443H24.1879C21.9622 25.6443 20.1514 27.2665 20.1514 29.2603V31.0263H48.1253Z" fill="#FBFCFD"/>
<path d="M20.1514 34.5581V39.912C20.1514 41.9059 21.9622 43.528 24.1879 43.528H44.0888C46.3145 43.528 48.1253 41.9059 48.1253 39.912V34.5581H20.1514Z" fill="#FBFCFD"/>
<path d="M28.0989 9.49821V7.73224C28.0989 5.73838 26.2881 4.11621 24.0624 4.11621H4.1615C1.93579 4.11621 0.125 5.73838 0.125 7.73224V9.49821H28.0989Z" fill="#FBFCFD"/>
<path d="M0.125 13.0303V18.3842C0.125 20.378 1.93579 22.0002 4.1615 22.0002H24.0624C26.2881 22.0002 28.0989 20.378 28.0989 18.3842V13.0303H0.125Z" fill="#FBFCFD"/>
</g>
<defs>
<clipPath id="clip0">
<rect width="48" height="48" fill="white"/>
</clipPath>
</defs>
</svg>
