<svg width="44" height="44" viewBox="0 0 44 44" fill="none" xmlns="http://www.w3.org/2000/svg">
<path d="M22 0C9.869 0 0 9.869 0 22C0 34.1311 9.869 44 22 44C34.1311 44 44 34.131 44 22C44 9.869 34.1311 0 22 0ZM22 39.1913C12.5205 39.1913 4.80874 31.4795 4.80874 22C4.80874 12.521 12.5205 4.80874 22 4.80874C31.4795 4.80874 39.1913 12.521 39.1913 22C39.1913 31.4795 31.4795 39.1913 22 39.1913Z" fill="#FBFCFD"/>
<path d="M23.9043 22.0264V12.8057C23.9043 11.7761 23.07 10.9418 22.0408 10.9418C21.0113 10.9418 20.1769 11.7761 20.1769 12.8057V22.6218C20.1769 22.6511 20.1842 22.6786 20.1856 22.7079C20.1611 23.2147 20.3357 23.7293 20.7227 24.1165L27.6642 31.0574C28.3923 31.7855 29.5723 31.7855 30.2998 31.0574C31.0274 30.3293 31.0279 29.1493 30.2998 28.4217L23.9043 22.0264Z" fill="#FBFCFD"/>
</svg>
