<svg width="44" height="44" viewBox="0 0 44 44" fill="none" xmlns="http://www.w3.org/2000/svg">
<path d="M28.7188 0H3.28125C1.5753 0 0.1875 1.3878 0.1875 3.09375V40.9062C0.1875 42.6122 1.5753 44 3.28125 44H28.7188C30.4247 44 31.8125 42.6122 31.8125 40.9062V3.09375C31.8125 1.3878 30.4247 0 28.7188 0ZM9.125 15.8125H22.875C23.6343 15.8125 24.25 16.4282 24.25 17.1875C24.25 17.9468 23.6343 18.5625 22.875 18.5625H9.125C8.36566 18.5625 7.75 17.9468 7.75 17.1875C7.75 16.4282 8.36566 15.8125 9.125 15.8125ZM7.75 24.0625C7.75 23.3032 8.36566 22.6875 9.125 22.6875H22.875C23.6343 22.6875 24.25 23.3032 24.25 24.0625C24.25 24.8218 23.6343 25.4375 22.875 25.4375H9.125C8.36566 25.4375 7.75 24.8218 7.75 24.0625ZM23.5625 36.4375H20.8125C20.0532 36.4375 19.4375 35.8218 19.4375 35.0625C19.4375 34.3032 20.0532 33.6875 20.8125 33.6875H23.5625C24.3218 33.6875 24.9375 34.3032 24.9375 35.0625C24.9375 35.8218 24.3218 36.4375 23.5625 36.4375Z" fill="#9F9F9F" fill-opacity="0.75"/>
</svg>
