<svg width="48" height="48" viewBox="0 0 48 48" fill="none" xmlns="http://www.w3.org/2000/svg">
<g clip-path="url(#clip0)">
<path d="M23.9994 48C37.2541 48 47.9992 37.2549 47.9992 24.0001C47.9992 10.7453 37.2541 0.000244141 23.9994 0.000244141C10.7446 0.000244141 -0.000488281 10.7453 -0.000488281 24.0001C-0.000488281 37.2549 10.7446 48 23.9994 48Z" fill="#4185E9"/>
<path d="M30.0329 24.9396H25.7505V40.6286H19.2621V24.9396H16.1763V19.4258H19.2621V15.8578C19.2621 13.3063 20.4742 9.31085 25.8082 9.31085L30.6143 9.33096V14.683H27.1272C26.5552 14.683 25.7509 14.9688 25.7509 16.1859V19.4309H30.5998L30.0329 24.9396Z" fill="#FBFCFD"/>
</g>
<defs>
<clipPath id="clip0">
<rect width="47.9997" height="47.9997" fill="white" transform="translate(-0.000488281 0.000244141)"/>
</clipPath>
</defs>
</svg>
