<svg width="44" height="44" viewBox="0 0 44 44" fill="none" xmlns="http://www.w3.org/2000/svg">
<path d="M25.6146 26.9935C33.2251 26.9935 39.4166 20.9388 39.4166 13.4968C39.4166 6.05473 33.2251 0 25.6146 0C18.0041 0 11.8124 6.05464 11.8124 13.4967C11.8124 20.9387 18.0041 26.9935 25.6146 26.9935ZM29.4563 18.9946C28.4992 18.9946 27.7905 18.2357 27.7491 17.3384C27.7077 16.4439 28.5633 15.6822 29.4563 15.6822C30.4134 15.6822 31.1221 16.441 31.1636 17.3384C31.2049 18.2329 30.3494 18.9946 29.4563 18.9946ZM29.0444 5.50987C29.7207 5.78522 30.0388 6.54024 29.7549 7.19633L23.9358 20.6478C23.7224 21.141 23.2296 21.4379 22.7107 21.4379C22.5394 21.4379 22.3653 21.4055 22.1974 21.3372C21.5211 21.0618 21.203 20.3068 21.4868 19.6507L27.306 6.19919C27.5899 5.5431 28.3682 5.2346 29.0444 5.50987ZM21.5973 11.4539C20.6402 11.4539 19.9315 10.695 19.8901 9.79766C19.8488 8.90315 20.7043 8.14142 21.5973 8.14142C22.5544 8.14142 23.2632 8.90032 23.3046 9.79766C23.3458 10.6921 22.4903 11.4539 21.5973 11.4539Z" fill="#FBFCFD"/>
<path d="M4.35601 31.3223H1.32797C0.594576 31.3223 0 31.8991 0 32.6106V42.7099C0 43.4214 0.594576 43.9982 1.32797 43.9982H4.35601V31.3223Z" fill="#FBFCFD"/>
<path d="M43.6105 31.2324C41.1216 28.8177 37.0715 28.8176 34.5827 31.2324L30.6046 35.0915L28.9741 36.6733C28.3152 37.3125 27.4214 37.6717 26.4894 37.6717H18.5612C17.8452 37.6717 17.229 37.1378 17.1953 36.444C17.1593 35.7031 17.7678 35.0915 18.5236 35.0915H26.5823C28.2026 35.0915 29.6079 33.9724 29.8864 32.424C29.9504 32.0684 29.9838 31.7028 29.9838 31.3297C29.9839 30.6197 29.3859 30.0386 28.654 30.0386H24.2383C22.7952 30.0386 21.4094 29.4035 19.9422 28.731C18.4033 28.0258 16.812 27.2966 14.9514 27.1765C13.3241 27.0713 11.6929 27.2442 10.1031 27.6895C8.40094 28.1663 7.17734 29.6334 7.02897 31.3273C7.0233 31.3269 7.01755 31.3268 7.01179 31.3264V43.9939C7.01241 43.9939 7.01303 43.9939 7.01365 43.9938V44H29.8907C31.4637 44 32.9427 43.4057 34.0552 42.3265L43.6104 33.0568C44.1299 32.5532 44.1299 31.7362 43.6105 31.2324Z" fill="#FBFCFD"/>
</svg>
