<svg width="48" height="48" viewBox="0 0 48 48" fill="none" xmlns="http://www.w3.org/2000/svg">
<g clip-path="url(#clip0)">
<path d="M23.9995 0C37.2534 0 47.9995 10.7459 47.9995 23.9999C47.9995 37.254 37.2536 47.9997 23.9997 47.9997C10.7459 47.9997 -0.000244141 37.2538 -0.000244141 23.9999C-0.000244141 10.7461 10.7442 0 23.9995 0Z" fill="#4185E9"/>
<path d="M32.2825 10.4969H15.7152C12.8367 10.4969 10.4967 12.8385 10.4967 15.7154V32.2844C10.4967 35.1629 12.8382 37.5029 15.7152 37.5029H32.2842C35.1626 37.5029 37.5027 35.1614 37.5027 32.2844V15.7154C37.5025 12.8385 35.161 10.4969 32.2825 10.4969ZM33.9266 13.5165L34.5176 13.515V17.997L30.0026 18.012L29.9876 13.53L33.9266 13.5165ZM23.9997 19.4819C27.7452 19.4819 28.5176 22.9978 28.5176 24.0012C28.5176 26.4897 26.4896 28.5177 23.9997 28.5177C21.5082 28.5177 19.4818 26.4897 19.4818 24.0012C19.4801 22.9978 20.2542 19.4819 23.9997 19.4819ZM34.5431 31.9573C34.5431 33.3839 33.3836 34.5448 31.9541 34.5448H15.9942C14.5661 34.5448 13.4052 33.3854 13.4052 31.9573V20.9939H17.1551C16.8071 21.8504 16.6105 23.0204 16.6105 24.0014C16.6105 28.0725 19.9225 31.3859 23.9951 31.3859C28.0676 31.3859 31.3779 28.0725 31.3779 24.0014C31.3779 23.0204 31.1814 21.8504 30.8349 20.9939H34.5398V31.9573H34.5431Z" fill="#FBFCFD"/>
</g>
<defs>
<clipPath id="clip0">
<rect width="47.9997" height="47.9997" fill="white" transform="translate(-0.000244141)"/>
</clipPath>
</defs>
</svg>
