<svg width="267" height="48" viewBox="0 0 267 48" fill="none" xmlns="http://www.w3.org/2000/svg">
<path d="M20.1474 0H2.41769C1.08244 0 0 1.10521 0 2.46858V20.5715C0 21.9348 1.08244 23.0401 2.41769 23.0401H20.1474C21.4826 23.0401 22.5652 21.9348 22.5652 20.5715V2.46858C22.5652 1.10521 21.4826 0 20.1474 0Z" fill="#F9E84B"/>
<path d="M44.5929 0H26.8633C25.5281 0 24.4456 1.10521 24.4456 2.46858V20.5715C24.4456 21.9348 25.5281 23.0401 26.8633 23.0401H44.5929C45.9282 23.0401 47.0107 21.9348 47.0107 20.5715V2.46858C47.0107 1.10521 45.9282 0 44.5929 0Z" fill="#D64BF9"/>
<path d="M44.5929 24.9599H26.8633C25.5281 24.9599 24.4456 26.0652 24.4456 27.4285V45.5313C24.4456 46.8947 25.5281 48 26.8633 48H44.5929C45.9282 48 47.0107 46.8947 47.0107 45.5313V27.4285C47.0107 26.0652 45.9282 24.9599 44.5929 24.9599Z" fill="#F9914B"/>
<path d="M20.1474 24.9599H2.41769C1.08244 24.9599 0 26.0652 0 27.4285V45.5313C0 46.8947 1.08244 48 2.41769 48H20.1474C21.4826 48 22.5652 46.8947 22.5652 45.5313V27.4285C22.5652 26.0652 21.4826 24.9599 20.1474 24.9599Z" fill="#4BF9B6"/>
<path d="M65.4338 41.6628C67.2187 41.6628 68.2764 40.5603 68.2764 38.6479V13.7402H83.3713V38.6479C83.3713 40.5603 84.451 41.6628 86.2139 41.6628C87.9989 41.6628 89.0567 40.5603 89.0567 38.6479V11.8277C89.0567 9.9377 87.9989 8.8127 86.2139 8.8127H65.4338C63.6709 8.8127 62.5911 9.9377 62.5911 11.8277V38.6479C62.5911 40.5603 63.6709 41.6628 65.4338 41.6628ZM109.088 41.8203C118.343 41.8203 124.161 35.3853 124.161 25.0578C124.161 14.7302 118.343 8.27271 109.088 8.27271C99.8102 8.27271 93.9928 14.7302 93.9928 25.0578C93.9928 35.3853 99.8102 41.8203 109.088 41.8203ZM109.088 36.8703C103.402 36.8703 99.8102 32.2803 99.8102 25.0578C99.8102 17.8128 103.402 13.2227 109.088 13.2227C114.751 13.2227 118.365 17.8128 118.365 25.0578C118.365 32.2803 114.751 36.8703 109.088 36.8703ZM125.394 45.1953C125.394 46.8828 126.386 47.9854 127.995 47.9854C129.581 47.9854 130.573 46.8828 130.573 45.1953V41.2803H152.345V45.1953C152.345 46.8828 153.336 47.9854 154.923 47.9854C156.531 47.9854 157.501 46.8828 157.501 45.1953V39.2779C157.501 37.5003 156.488 36.3753 154.901 36.3753H153.535V11.8277C153.535 9.9377 152.477 8.8127 150.692 8.8127H135.729C133.371 8.8127 131.961 10.1177 131.807 12.4352L130.882 27.9152C130.617 32.5502 129.911 35.1379 127.797 36.3529H127.532C126.121 36.5553 125.394 37.5453 125.394 39.4129V45.1953ZM133.989 36.3753V36.1953C135.333 34.5753 135.906 32.3253 136.148 28.2752L137.051 13.6952H147.871V36.3753H133.989ZM164.421 41.2803H174.095C180.42 41.2803 184.805 37.2303 184.805 31.2228C184.805 25.3053 180.331 21.2778 173.919 21.2778H167.263V13.6952H179.537C181.081 13.6952 182.138 12.7727 182.138 11.2652C182.138 9.7577 181.102 8.8127 179.537 8.8127H164.421C162.658 8.8127 161.578 9.9377 161.578 11.8277V38.2653C161.578 40.1553 162.658 41.2803 164.421 41.2803ZM167.263 36.5103V25.9128H172.64C176.673 25.9128 178.986 27.7803 178.986 31.2228C178.986 34.6428 176.673 36.5103 172.662 36.5103H167.263ZM192.803 41.2803H208.294C209.859 41.2803 210.895 40.3353 210.895 38.8279C210.895 37.3203 209.859 36.3753 208.294 36.3753H195.646V27.1053H207.634C209.11 27.1053 210.08 26.2053 210.08 24.7878C210.08 23.3703 209.089 22.4928 207.634 22.4928H195.646V13.7177H208.294C209.859 13.7177 210.895 12.7727 210.895 11.2652C210.895 9.7577 209.859 8.8127 208.294 8.8127H192.803C191.041 8.8127 189.96 9.9377 189.96 11.8277V38.2653C189.96 40.1553 191.041 41.2803 192.803 41.2803ZM218.806 41.6628C220.591 41.6628 221.648 40.5603 221.648 38.6479V30.5478H228.083C234.519 30.5478 239.035 26.1603 239.035 19.6802C239.035 13.2002 234.65 8.8127 228.326 8.8127H218.806C217.044 8.8127 215.964 9.9377 215.964 11.8277V38.6479C215.964 40.5603 217.044 41.6628 218.806 41.6628ZM221.648 25.8678V13.5602H226.828C230.904 13.5602 233.262 15.7878 233.262 19.6802C233.262 23.6178 230.882 25.8678 226.806 25.8678H221.648ZM247.894 41.5278C252.477 41.5278 255.167 38.9628 258.162 32.0553L266.735 12.2777C266.912 11.8277 267 11.3102 267 10.8602C267 9.3752 265.964 8.3627 264.311 8.3627C262.923 8.3627 262.218 8.9477 261.644 10.4102L254.703 27.9379H254.417L247.188 10.4327C246.572 8.9252 245.845 8.3627 244.523 8.3627C242.913 8.3627 241.746 9.4427 241.746 10.9277C241.746 11.3777 241.834 11.8952 242.033 12.3227L251.53 33.8329C250.472 35.5653 249.194 36.5553 246.814 36.5553H246.726C245.008 36.5553 244.083 37.4104 244.083 38.7379C244.083 40.5153 245.493 41.5278 247.894 41.5278Z" fill="#FBFCFD"/>
</svg>
