<svg width="44" height="44" viewBox="0 0 44 44" fill="none" xmlns="http://www.w3.org/2000/svg">
<g clip-path="url(#clip0)">
<path d="M20.1667 27.5C17.1343 27.5 14.6667 25.0323 14.6667 22C14.6667 18.9677 17.1343 16.5 20.1667 16.5H29.3333V5.04167C29.3333 2.2605 27.0728 0 24.2917 0H5.04167C2.2605 0 0 2.2605 0 5.04167V38.9583C0 41.7395 2.2605 44 5.04167 44H24.2917C27.0728 44 29.3333 41.7395 29.3333 38.9583V27.5H20.1667Z" fill="#272E3E" fill-opacity="0.75"/>
<path d="M34.1315 31.0273C33.4476 30.7432 33.0003 30.074 33.0003 29.3333V23.8333H20.167C19.155 23.8333 18.3336 23.012 18.3336 22C18.3336 20.988 19.155 20.1667 20.167 20.1667H33.0003V14.6667C33.0003 13.926 33.4476 13.2569 34.1315 12.9727C34.8171 12.6885 35.6055 12.8462 36.1298 13.3705L43.4631 20.7038C44.18 21.4207 44.18 22.5793 43.4631 23.2962L36.1298 30.6295C35.6055 31.1538 34.8171 31.3115 34.1315 31.0273Z" fill="#272E3E" fill-opacity="0.75"/>
</g>
<defs>
<clipPath id="clip0">
<rect width="44" height="44" fill="white"/>
</clipPath>
</defs>
</svg>
