<svg width="48" height="48" viewBox="0 0 48 48" fill="none" xmlns="http://www.w3.org/2000/svg">
<g clip-path="url(#clip0)">
<path d="M31.0087 9.95061C32.6478 9.95061 33.9814 8.61707 33.9814 6.97799C33.9814 5.33891 32.6478 4.00537 31.0087 4.00537C29.3697 4.00537 28.0361 5.33891 28.0361 6.97799C28.0361 8.61717 29.3697 9.95061 31.0087 9.95061Z" fill="#07C47B"/>
<path d="M41.0217 14.0183C39.3826 14.0183 38.0491 15.3518 38.0491 16.9909C38.0491 18.63 39.3826 19.9635 41.0217 19.9635C42.6608 19.9635 43.9943 18.63 43.9943 16.9909C43.9942 15.3518 42.6607 14.0183 41.0217 14.0183Z" fill="#07C47B"/>
<path d="M43.4168 4.58299C42.647 3.81316 41.3988 3.81316 40.629 4.58299L28.6135 16.5985C27.8437 17.3683 27.8437 18.6165 28.6135 19.3863C28.9985 19.7713 29.5029 19.9637 30.0074 19.9637C30.5119 19.9637 31.0164 19.7713 31.4013 19.3863L43.4168 7.37078C44.1866 6.60094 44.1866 5.35274 43.4168 4.58299Z" fill="#07C47B"/>
<path d="M10.1319 19.8464C10.3371 18.6444 9.54867 17.4973 8.35294 17.2581L2.35786 16.0591C1.17508 15.8226 0 16.6971 0 18.0295V39.9853C0 41.2694 1.09998 42.1359 2.25009 41.972L4.83117 41.6033C5.80002 41.4649 6.56864 40.7169 6.73338 39.7522L10.1319 19.8464Z" fill="#07C47B"/>
<path d="M46.6799 36.8745L26.6535 43.8838C26.2194 44.0362 25.7582 44.0271 25.3458 43.8829L12.7857 39.4493C11.7565 39.086 11.1357 38.0371 11.3124 36.9601L13.4615 23.8613C13.6679 22.6031 14.8763 21.7668 16.1265 22.0169L25.4228 23.8762C27.5592 24.3039 29.4615 25.3504 30.9369 26.8254C32.1652 28.0534 31.5792 30.1521 29.8988 30.591C28.8217 30.8723 27.8313 31.0404 27.0036 31.0404C22.893 31.0404 20.029 29.8163 19.2085 29.4183C17.908 28.422 15.9897 29.3382 15.9897 31.0094C15.9897 31.9077 16.5811 32.6681 17.3968 32.9215C18.527 33.482 22.02 34.983 27.0036 34.983C31.236 34.983 37.567 32.0745 41.3346 30.1462C41.9632 29.8245 42.708 29.8137 43.3418 30.125C45.067 30.9724 46.567 32.2676 47.6685 33.9213C48.3827 34.9927 47.8926 36.4504 46.6799 36.8745Z" fill="#07C47B"/>
</g>
<defs>
<clipPath id="clip0">
<rect width="48" height="48" fill="white"/>
</clipPath>
</defs>
</svg>
