<svg width="75" height="45" viewBox="0 0 75 45" fill="none" xmlns="http://www.w3.org/2000/svg">
<path fill-rule="evenodd" clip-rule="evenodd" d="M20.975 1.18427C20.975 1.18427 1.66962 19.3217 1.48387 19.4734C0.5767 20.2113 0 21.2889 0 22.5C0 23.7616 0.628538 24.8776 1.60266 25.6156C1.81218 25.7733 20.975 43.8157 20.975 43.8157C22.6619 45.3948 25.3986 45.3948 27.0833 43.8157C28.7702 42.2367 28.7702 39.6751 27.0833 38.0981L14.7415 26.5436L70.6586 26.5436C73.0561 26.5436 75 24.7321 75 22.5C75 20.2659 73.0561 18.4564 70.6586 18.4564L14.7415 18.4564L27.0833 6.90189C28.7702 5.32489 28.7702 2.76328 27.0833 1.18427C25.3986 -0.394753 22.6619 -0.394753 20.975 1.18427Z" fill="#4185E9"/>
</svg>
