<svg width="75" height="45" viewBox="0 0 75 45" fill="none" xmlns="http://www.w3.org/2000/svg">
<path fill-rule="evenodd" clip-rule="evenodd" d="M54.025 43.8157C54.025 43.8157 73.3304 25.6783 73.5161 25.5266C74.4233 24.7887 75 23.7111 75 22.5C75 21.2384 74.3715 20.1224 73.3973 19.3844C73.1878 19.2267 54.025 1.18426 54.025 1.18426C52.3381 -0.394755 49.6014 -0.394755 47.9167 1.18426C46.2298 2.76328 46.2298 5.32489 47.9167 6.90189L60.2585 18.4564L4.34145 18.4564C1.94392 18.4564 -7.62939e-06 20.2679 -7.62939e-06 22.5C-7.62939e-06 24.7341 1.94392 26.5436 4.34145 26.5436L60.2585 26.5436L47.9167 38.0981C46.2298 39.6751 46.2298 42.2367 47.9167 43.8157C49.6014 45.3948 52.3381 45.3948 54.025 43.8157Z" fill="#4185E9"/>
</svg>
