<svg width="44" height="44" viewBox="0 0 44 44" fill="none" xmlns="http://www.w3.org/2000/svg">
<path d="M38.9075 3.46637L22.2825 0.028875C22.0961 -0.009625 21.9037 -0.009625 21.7174 0.028875L5.09238 3.46637C4.44989 3.59923 3.9895 4.16118 3.9895 4.8125V23.7389C3.9895 26.5885 4.72516 29.412 6.11698 31.9043C7.50881 34.3966 9.53134 36.5123 11.966 38.0224L21.2656 43.791C21.4903 43.9304 21.7451 44 21.9999 44C22.2547 44 22.5096 43.9303 22.7342 43.791L32.0338 38.0224C34.4685 36.5123 36.491 34.3967 37.8829 31.9043C39.2747 29.412 40.0103 26.5885 40.0103 23.7389V4.8125C40.0103 4.16118 39.5499 3.59923 38.9075 3.46637ZM23.3853 30.3982V30.8987C23.3853 31.639 22.812 32.2761 22.0669 32.311C21.2713 32.3481 20.6145 31.7189 20.6145 30.9375V30.4001C20.6145 30.2115 20.4898 30.0469 20.3086 29.9899C18.3953 29.3867 16.9197 27.7826 16.5474 25.7341C16.4108 24.9822 16.8816 24.233 17.6374 24.0878C18.4055 23.9402 19.1398 24.4498 19.268 25.2105C19.5024 26.5999 20.7515 27.5903 22.1941 27.4936C23.5571 27.4021 24.6633 26.3084 24.7631 24.9562C24.8819 23.347 23.5964 22 21.9999 22C18.9442 22 16.4583 19.5327 16.4583 16.5C16.4583 14.0517 18.0784 11.972 20.3106 11.2613C20.4909 11.2039 20.6145 11.0397 20.6145 10.8518V10.3513C20.6145 9.61099 21.1878 8.97394 21.9329 8.93905C22.7285 8.90184 23.3853 9.53107 23.3853 10.3125V10.8499C23.3853 11.0385 23.51 11.203 23.6912 11.2601C25.6261 11.8701 27.1134 13.5036 27.4645 15.5855C27.5909 16.3345 27.0815 17.0433 26.3269 17.1687C25.572 17.2943 24.8581 16.7886 24.7318 16.0395C24.4974 14.6502 23.2484 13.6598 21.8057 13.7565C20.4427 13.848 19.3365 14.9417 19.2367 16.2939C19.1179 17.9029 20.4034 19.25 21.9999 19.25C25.0556 19.25 27.5416 21.7173 27.5416 24.75C27.5416 27.1983 25.9214 29.278 23.6893 29.9887C23.509 30.0461 23.3853 30.2103 23.3853 30.3982Z" fill="#4185E9"/>
</svg>
