<svg width="48" height="48" viewBox="0 0 48 48" fill="none" xmlns="http://www.w3.org/2000/svg">
<g clip-path="url(#clip0)">
<path d="M23.9999 47.9998C37.2546 47.9998 47.9997 37.2547 47.9997 24C47.9997 10.7452 37.2546 0.00012207 23.9999 0.00012207C10.7451 0.00012207 0 10.7452 0 24C0 37.2547 10.7451 47.9998 23.9999 47.9998Z" fill="#4185E9"/>
<path fill-rule="evenodd" clip-rule="evenodd" d="M23.0933 34.526H24.977C24.977 34.526 25.546 34.4635 25.8365 34.1503C26.1039 33.8628 26.0954 33.3229 26.0954 33.3229C26.0954 33.3229 26.0586 30.7954 27.2316 30.4232C28.388 30.0565 29.873 32.866 31.447 33.9463C32.6372 34.7638 33.5416 34.5846 33.5416 34.5846L37.75 34.526C37.75 34.526 39.9516 34.3904 38.9077 32.6594C38.8222 32.5178 38.2998 31.3789 35.7786 29.0387C33.1398 26.5895 33.4932 26.9856 36.6719 22.7489C38.6078 20.1688 39.3817 18.5935 39.14 17.9188C38.9094 17.2763 37.4856 17.4461 37.4856 17.4461L32.7471 17.4756C32.7471 17.4756 32.3959 17.4277 32.1353 17.5834C31.8808 17.7362 31.7169 18.0921 31.7169 18.0921C31.7169 18.0921 30.9669 20.0887 29.9667 21.7868C27.8567 25.3698 27.013 25.5589 26.6682 25.3364C25.866 24.8179 26.0663 23.2533 26.0663 22.1419C26.0663 18.6697 26.5929 17.2219 25.0408 16.8472C24.5257 16.7227 24.1466 16.6405 22.8294 16.6273C21.1386 16.6097 19.7076 16.6324 18.8973 17.0294C18.3582 17.2934 17.9424 17.8816 18.1957 17.9154C18.5088 17.9573 19.2181 18.1067 19.5942 18.6188C20.0798 19.2793 20.0627 20.763 20.0627 20.763C20.0627 20.763 20.3416 24.8504 19.4111 25.3582C18.7724 25.7065 17.8962 24.9954 16.0151 21.7448C15.0512 20.0798 14.3235 18.2393 14.3235 18.2393C14.3235 18.2393 14.1831 17.8953 13.9329 17.7114C13.6291 17.4885 13.2047 17.4174 13.2047 17.4174L8.7019 17.447C8.7019 17.447 8.02594 17.4658 7.7778 17.7597C7.55705 18.0211 7.76026 18.5619 7.76026 18.5619C7.76026 18.5619 11.2855 26.8094 15.2771 30.9656C18.9371 34.7762 23.0933 34.526 23.0933 34.526Z" fill="#FBFCFD"/>
</g>
<defs>
<clipPath id="clip0">
<rect width="47.9997" height="47.9997" fill="white" transform="translate(0 0.00012207)"/>
</clipPath>
</defs>
</svg>
