<svg width="44" height="44" viewBox="0 0 44 44" fill="none" xmlns="http://www.w3.org/2000/svg">
<g clip-path="url(#clip0)">
<path d="M23.0027 33.3466C22.2706 32.8564 21.3119 32.9812 20.7214 33.5719L17.0503 37.243C16.3446 37.9487 16.3446 39.0928 17.0503 39.7985C17.756 40.5042 18.9002 40.5042 19.6058 39.7985L20.1924 39.2119V42.1922C20.1924 43.1902 21.0014 43.9993 21.9994 43.9993C22.9974 43.9993 23.8065 43.1902 23.8065 42.1922V39.2119L24.3931 39.7985C25.0987 40.5042 26.2429 40.5042 26.9486 39.7985C27.6542 39.0928 27.6542 37.9487 26.9486 37.243C22.9877 33.282 23.2144 33.4882 23.0027 33.3466Z" fill="#4185E9"/>
<path d="M42.9674 15.6032C43.5377 15.6032 44 15.1408 44 14.5706V10.9852C44 10.2765 43.5858 9.63332 42.9407 9.34007L22.7477 0.1615C22.2726 -0.0544844 21.7274 -0.0544844 21.2522 0.1615L1.05927 9.34015C0.414157 9.63341 0 10.2766 0 10.9852V14.5706C0 15.1408 0.462344 15.6032 1.0326 15.6032H42.9674Z" fill="#4185E9"/>
<path d="M0 20.2504V38.5215C0 39.5195 0.809038 40.3286 1.80704 40.3286H10.9857C11.9803 40.3286 12.7937 39.5249 12.7927 38.5303C12.7904 36.0773 13.7528 33.8452 15.3201 32.1921C15.5308 31.9698 15.6455 31.668 15.6133 31.3634C15.5982 31.2198 15.6036 23.8705 15.6036 23.8792C15.6036 22.8993 16.3656 22.0648 17.3448 22.03C18.3729 21.9934 19.2177 22.8159 19.2177 23.8358V28.4323C19.2177 29.0716 19.7929 29.559 20.4227 29.4498C21.4626 29.2692 22.5362 29.269 23.5774 29.4498C24.2072 29.5591 24.7824 29.0716 24.7824 28.4323V23.8791C24.7824 22.8992 25.5443 22.0647 26.5236 22.0299C27.5515 21.9934 28.3963 22.8159 28.3963 23.8358C28.3963 31.6864 28.4009 31.2278 28.3866 31.3633C28.3544 31.6679 28.4691 31.9697 28.6799 32.192C30.2473 33.8452 31.2096 36.0773 31.2072 38.5302C31.2063 39.5249 32.0196 40.3285 33.0143 40.3285H42.1929C43.1909 40.3285 44 39.5195 44 38.5215V20.2504C44 19.6801 43.5376 19.2178 42.9674 19.2178H1.03259C0.462344 19.2178 0 19.6801 0 20.2504H0ZM10.9569 29.343C10.9569 30.341 10.1479 31.15 9.14991 31.15C8.1519 31.15 7.34287 30.341 7.34287 29.343V23.8358C7.34287 22.8378 8.1519 22.0288 9.14991 22.0288C10.1479 22.0288 10.9569 22.8378 10.9569 23.8358V29.343ZM36.6571 29.343C36.6571 30.341 35.8481 31.15 34.8501 31.15C33.8521 31.15 33.043 30.341 33.043 29.343V23.8358C33.043 22.8378 33.8521 22.0288 34.8501 22.0288C35.8481 22.0288 36.6571 22.8378 36.6571 23.8358V29.343Z" fill="#4185E9"/>
</g>
<defs>
<clipPath id="clip0">
<rect width="44" height="44" fill="white"/>
</clipPath>
</defs>
</svg>
