<svg width="48" height="48" viewBox="0 0 48 48" fill="none" xmlns="http://www.w3.org/2000/svg">
<g clip-path="url(#clip0)">
<path d="M48 32.0418V30.0705C48 27.8447 46.1892 26.0339 43.9635 26.0339H24.0626C21.8369 26.0339 20.0261 27.8447 20.0261 30.0705V32.0418H48Z" fill="#7F4BF9"/>
<path d="M20.0261 35.9844V41.9608C20.0261 44.1865 21.8369 45.9973 24.0626 45.9973H43.9635C46.1892 45.9973 48 44.1865 48 41.9608V35.9844H20.0261Z" fill="#7F4BF9"/>
<path d="M27.9739 8.0105V6.03919C27.9739 3.81348 26.1631 2.00269 23.9374 2.00269H4.0365C1.81079 2.00269 0 3.81348 0 6.03919V8.0105H27.9739Z" fill="#7F4BF9"/>
<path d="M0 11.9531V17.9296C0 20.1553 1.81079 21.9661 4.0365 21.9661H23.9374C26.1631 21.9661 27.9739 20.1553 27.9739 17.9296V11.9531H0Z" fill="#7F4BF9"/>
</g>
<defs>
<clipPath id="clip0">
<rect width="48" height="48" fill="white"/>
</clipPath>
</defs>
</svg>
