<svg width="48" height="48" viewBox="0 0 48 48" fill="none" xmlns="http://www.w3.org/2000/svg">
<g clip-path="url(#clip0)">
<path d="M24.7087 32.4407V32.2537C23.753 32.2433 22.8388 32.1914 21.9558 32.1187C21.4779 33.3549 20.8027 34.508 19.9612 35.5365C21.5506 35.7962 23.1609 35.9416 24.7711 35.9624L24.7087 32.4407Z" fill="#E9A541"/>
<path d="M20.5015 25.5634C19.7327 21.8858 17.0213 18.8939 13.4165 17.7615C12.4192 17.4603 11.3907 17.3044 10.3518 17.3044C7.77547 17.3148 5.28221 18.2706 3.3811 19.9951C-0.84705 23.8389 -1.14832 30.394 2.69545 34.6222C6.53923 38.8503 13.0944 39.1516 17.3226 35.3078C19.4834 33.3444 20.7196 30.5707 20.7092 27.6515C20.7092 26.9554 20.6365 26.249 20.5015 25.5634ZM10.3518 26.2594C12.1075 26.2594 13.6554 27.4229 14.1333 29.1163C14.715 31.2044 13.51 33.3652 11.4115 33.9573V34.8715C11.4115 35.4429 10.944 35.9104 10.3726 35.9104C9.80124 35.9104 9.33376 35.4429 9.33376 34.8715V33.9677C7.61964 33.5002 6.43534 31.9523 6.42495 30.1759C6.42495 29.6045 6.89244 29.137 7.46381 29.137C8.03518 29.137 8.50267 29.6045 8.50267 30.1759C8.50267 31.194 9.33376 32.0147 10.3518 32.0147C11.3699 32.0147 12.1906 31.1836 12.1906 30.1655C12.1906 29.1474 11.3595 28.3267 10.3414 28.3267C8.565 28.3267 7.0171 27.132 6.56001 25.4179C6.00941 23.3402 7.25604 21.1794 9.34414 20.6184V20.1717C9.34414 19.6003 9.81163 19.1328 10.383 19.1328C10.9544 19.1328 11.4219 19.6003 11.4219 20.1717V20.6392C13.1152 21.1171 14.2787 22.6649 14.2787 24.4206C14.2787 24.992 13.8112 25.4595 13.2399 25.4595C12.6685 25.4595 12.201 24.992 12.201 24.4206C12.201 23.4025 11.3699 22.5715 10.3518 22.5715C9.33376 22.5715 8.51306 23.3921 8.50267 24.4206C8.50267 25.4387 9.33376 26.2594 10.3518 26.2594Z" fill="#E9A541"/>
<path d="M24.6778 30.1655L24.6154 26.488C23.9713 26.4776 23.3376 26.4568 22.7351 26.4153C22.7663 26.8308 22.787 27.236 22.787 27.6411C22.787 28.4514 22.7039 29.2721 22.5481 30.072C23.2337 30.1344 23.9506 30.1655 24.6778 30.1655Z" fill="#E9A541"/>
<path d="M36.0532 12.9727C35.3364 13.3466 34.578 13.6479 33.7989 13.8765C31.4615 14.5829 28.3968 14.9673 25.1972 14.9673C22.1325 14.9673 19.2133 14.614 16.959 13.9596C16.1799 13.7518 15.4319 13.4609 14.7151 13.0973L14.7878 16.0269C15.9617 16.4632 17.0525 17.0865 18.0394 17.8657C18.0706 17.8761 18.0914 17.8761 18.1225 17.8864C20.1171 18.3955 22.6312 18.6656 25.1972 18.6656C28.1683 18.6656 31.0875 18.2916 33.1964 17.6579C35.4507 16.9723 35.9493 16.2554 35.9493 16.1204C35.9493 15.975 35.9389 15.8399 36.0532 15.6945V12.9727Z" fill="#E9A541"/>
<path d="M33.1859 8.84827C31.077 8.20418 28.1578 7.84058 25.1867 7.84058C22.1947 7.84058 19.3898 8.20418 17.2913 8.84827C15.0993 9.51314 14.6215 10.1676 14.6111 10.3754C14.6111 10.3754 14.6215 10.3754 14.6215 10.3962C14.6734 10.6247 15.2967 11.3311 17.5303 11.9752C19.5976 12.5778 22.3194 12.9102 25.1867 12.9102C28.1578 12.9102 31.0666 12.5466 33.1755 11.9129C35.4298 11.2376 35.9388 10.5208 35.9388 10.3754C35.9388 10.2403 35.4402 9.53392 33.1859 8.84827Z" fill="#E9A541"/>
<path d="M47.9793 37.5934V34.4768C47.2832 34.83 46.556 35.1313 45.7977 35.3598C43.4706 36.0663 40.4268 36.4506 37.2167 36.4506C34.3702 36.4506 31.5965 36.1286 29.4149 35.5572C28.5215 35.3287 27.6592 35.017 26.8281 34.6119L26.8801 37.6245C26.8801 37.6349 26.8801 37.6349 26.8801 37.6453C26.8801 37.8012 27.3372 38.4972 29.5292 39.1724C31.6069 39.8061 34.4118 40.1594 37.4141 40.1594C40.406 40.1594 43.2213 39.7958 45.3198 39.1413C47.5118 38.4556 47.9897 37.7388 47.9897 37.5934H47.9793Z" fill="#E9A541"/>
<path d="M36.0323 18.7693C35.3155 19.1329 34.5675 19.4342 33.7884 19.6627C31.4509 20.3691 28.3863 20.7535 25.1762 20.7535C23.5972 20.7535 22.0285 20.6496 20.4702 20.4522C21.3117 21.6158 21.935 22.9247 22.3298 24.3168C23.2232 24.3791 24.1893 24.4207 25.1866 24.4207C25.2178 24.4207 25.2593 24.4207 25.2905 24.4207C26.9942 22.5507 31.5756 21.6158 36.0323 21.4911V18.7693Z" fill="#E9A541"/>
<path d="M45.7249 29.615C43.4083 30.3006 40.3956 30.6746 37.2375 30.6746C34.1728 30.6746 31.2536 30.3214 28.9993 29.6669C28.2202 29.4487 27.4618 29.1579 26.7346 28.7943L26.7762 31.1836L26.7866 32.0563C27.5969 33.064 31.4718 34.3625 37.2271 34.3625C40.2294 34.3625 43.0655 34.0093 45.1951 33.3652C47.4391 32.6796 47.9273 31.9732 47.9273 31.8277C47.9273 31.7135 47.9896 31.5888 47.9896 31.4849H48V28.7319C47.2728 29.0955 46.5145 29.4072 45.7249 29.615Z" fill="#E9A541"/>
<path d="M45.2366 24.5765C43.1174 23.9324 40.2086 23.5896 37.2374 23.5896H37.0608C34.2975 23.5896 31.6692 23.9013 29.6538 24.4726C27.5033 25.0752 26.7658 25.7608 26.6723 26.0413C26.6619 26.0621 26.6619 26.0725 26.6619 26.0829C26.6619 26.0829 26.6619 26.0829 26.6826 26.1244C26.745 26.3426 27.3579 27.049 29.5914 27.7035C31.6588 28.2956 34.3806 28.6281 37.2478 28.6281C40.2086 28.6281 43.0135 28.2852 45.1431 27.6515C47.4494 26.9659 47.9688 26.2491 47.9792 26.0932V26.0829C47.9688 25.927 47.4494 25.2414 45.2366 24.5765Z" fill="#E9A541"/>
</g>
<defs>
<clipPath id="clip0">
<rect width="48" height="48" fill="white"/>
</clipPath>
</defs>
</svg>
