<svg width="44" height="44" viewBox="0 0 44 44" fill="none" xmlns="http://www.w3.org/2000/svg">
<path d="M34.7188 0H9.28125C7.5753 0 6.1875 1.3878 6.1875 3.09375V40.9062C6.1875 42.6122 7.5753 44 9.28125 44H34.7188C36.4247 44 37.8125 42.6122 37.8125 40.9062V3.09375C37.8125 1.3878 36.4247 0 34.7188 0ZM15.125 15.8125H28.875C29.6343 15.8125 30.25 16.4282 30.25 17.1875C30.25 17.9468 29.6343 18.5625 28.875 18.5625H15.125C14.3657 18.5625 13.75 17.9468 13.75 17.1875C13.75 16.4282 14.3657 15.8125 15.125 15.8125ZM13.75 24.0625C13.75 23.3032 14.3657 22.6875 15.125 22.6875H28.875C29.6343 22.6875 30.25 23.3032 30.25 24.0625C30.25 24.8218 29.6343 25.4375 28.875 25.4375H15.125C14.3657 25.4375 13.75 24.8218 13.75 24.0625ZM29.5625 36.4375H26.8125C26.0532 36.4375 25.4375 35.8218 25.4375 35.0625C25.4375 34.3032 26.0532 33.6875 26.8125 33.6875H29.5625C30.3218 33.6875 30.9375 34.3032 30.9375 35.0625C30.9375 35.8218 30.3218 36.4375 29.5625 36.4375Z" fill="#4185E9"/>
</svg>
