<svg width="44" height="44" viewBox="0 0 44 44" fill="none" xmlns="http://www.w3.org/2000/svg">
<path d="M21.6553 44H18.2178C16.5118 44 15.124 42.6122 15.124 40.9062V19.5938C15.124 17.8878 16.5118 16.5 18.2178 16.5H21.6553C23.3612 16.5 24.749 17.8878 24.749 19.5938V40.9062C24.749 42.6122 23.3611 44 21.6553 44Z" fill="#7F4BF9"/>
<path d="M8.59278 44H5.15528C3.44933 44 2.06152 42.6122 2.06152 40.9062V26.4688C2.06152 24.7628 3.44933 23.375 5.15528 23.375H8.59278C10.2987 23.375 11.6865 24.7628 11.6865 26.4688V40.9062C11.6865 42.6122 10.2986 44 8.59278 44Z" fill="#7F4BF9"/>
<path d="M34.7177 44H31.2802C29.5742 44 28.1864 42.6122 28.1864 40.9062V12.375H26.2975C25.4144 12.375 24.6365 11.8766 24.2675 11.0743C23.8985 10.2719 24.0263 9.35705 24.601 8.68648C24.6076 8.67883 24.6143 8.67118 24.621 8.6637L31.9749 0.457359C32.2357 0.166289 32.6081 0 32.9989 0C33.3898 0 33.7621 0.166289 34.023 0.457359L41.3769 8.6637C41.3837 8.67118 41.3903 8.67883 41.3968 8.68648C41.9716 9.35696 42.0994 10.2719 41.7303 11.0743C41.3613 11.8766 40.5834 12.375 39.7003 12.375H37.8114V40.9062C37.8114 42.6122 36.4235 44 34.7177 44Z" fill="#7F4BF9"/>
</svg>
