<svg width="48" height="48" viewBox="0 0 48 48" fill="none" xmlns="http://www.w3.org/2000/svg">
<path d="M28.6973 23.7488C35.3368 23.7488 40.7376 18.4219 40.7376 11.8744C40.7376 5.32689 35.3368 0 28.6973 0C22.0578 0 16.656 5.32689 16.656 11.8744C16.656 18.4219 22.0578 23.7488 28.6973 23.7488ZM27.2713 4.8947V4.5722C27.2713 3.79501 27.9092 3.16595 28.6973 3.16595C29.4845 3.16595 30.1233 3.79501 30.1233 4.5722V4.89658C31.8203 5.25564 33.097 6.74627 33.097 8.52565C33.097 9.3019 32.4582 9.9319 31.671 9.9319C30.8829 9.9319 30.245 9.3019 30.245 8.52565C30.245 8.02971 29.8353 7.62565 29.3323 7.62565H28.0537C27.5508 7.62565 27.141 8.02971 27.141 8.52565C27.141 8.80971 27.2789 9.07971 27.5108 9.24847L28.6973 10.1147L31.5798 12.2185C32.5266 12.9094 33.097 14.0147 33.1046 15.1772V15.1904C33.1113 16.1822 32.7263 17.1179 32.019 17.8238C31.4942 18.3479 30.8382 18.6994 30.1233 18.8476V19.1766C30.1233 19.9538 29.4845 20.5829 28.6973 20.5829C27.9092 20.5829 27.2713 19.9538 27.2713 19.1766V18.8522C26.5754 18.706 25.9356 18.3685 25.4184 17.8641C24.7025 17.1676 24.3052 16.2375 24.2995 15.2457C24.2947 14.4694 24.9288 13.8357 25.716 13.831H25.7255C26.5088 13.831 27.1467 14.4554 27.1515 15.2288C27.1534 15.7141 27.5494 16.1232 28.0689 16.1232C28.8568 16.1185 28.5633 16.1202 29.3457 16.1157C29.8518 16.1117 30.2565 15.7066 30.2526 15.2091V15.196C30.2507 14.9147 30.1129 14.6466 29.8828 14.4788L28.6973 13.6135L25.8139 11.5097C24.8594 10.8122 24.289 9.69659 24.289 8.52565C24.289 6.74252 25.5696 5.25095 27.2713 4.8947Z" fill="#FBFCFD"/>
<path d="M9.18734 30.5055C8.8218 29.8806 8.00983 29.6631 7.37221 30.0259L0.664411 33.8443C0.0292631 34.2069 -0.188632 35.0079 0.178044 35.6351L7.03377 47.3447C7.40073 47.9709 8.21261 48.186 8.8489 47.8244L15.5567 44.005C16.1928 43.6433 16.4098 42.8422 16.0431 42.215L9.18734 30.5055Z" fill="#FBFCFD"/>
<path d="M47.6224 28.1682C46.9768 27.2841 45.7276 27.0844 44.8321 27.721C42.1151 29.6513 36.8978 33.3582 36.4833 33.6535C36.2922 33.8138 36.0916 33.9591 35.8824 34.0876C35.062 34.5966 34.1104 34.8685 33.1169 34.8685H26.2863C25.4991 34.8685 24.8603 34.2395 24.8603 33.4623C24.8603 32.6841 25.5001 32.056 26.2863 32.056H33.5913C34.6646 32.056 35.524 31.1748 35.4793 30.1144C35.4375 29.1085 34.5667 28.3285 33.5457 28.3285H27.9851C27.6087 27.9357 27.1961 27.5757 26.754 27.2541C25.2339 26.1488 23.3553 25.4954 21.3218 25.4954C17.7064 25.4954 14.109 27.7416 12.6174 30.7398L18.4508 40.7026H29.3931C31.5416 40.7026 33.6578 40.1607 35.5202 39.1042C36.1657 38.7385 36.8569 38.2988 37.606 37.7682C40.7451 35.5445 47.1632 30.9244 47.1679 30.9216C48.0654 30.286 48.2688 29.0522 47.6224 28.1682Z" fill="#FBFCFD"/>
</svg>
