<svg width="44" height="44" viewBox="0 0 44 44" fill="none" xmlns="http://www.w3.org/2000/svg">
<g clip-path="url(#clip0)">
<path d="M24.9927 29.2281C24.8283 29.0481 24.6205 28.9135 24.4056 28.8014C23.9379 28.5575 23.4263 28.4095 22.9184 28.276V32.2119C23.7428 32.1187 24.6893 31.8195 25.1222 31.0499C25.3288 30.6822 25.3699 30.2305 25.2858 29.8212C25.2401 29.5994 25.1458 29.3959 24.9927 29.2281Z" fill="#FBFCFD"/>
<path d="M25.1178 31.0574C25.1195 31.0546 25.1204 31.0529 25.1222 31.0499C25.1207 31.0524 25.1193 31.0548 25.1178 31.0574Z" fill="#FBFCFD"/>
<path d="M19.0513 22.9361C18.9095 23.1431 18.8206 23.3782 18.796 23.6282C18.7715 23.8786 18.7853 24.1572 18.8804 24.393C18.971 24.6177 19.1608 24.7835 19.3567 24.9171C19.5765 25.0666 19.8182 25.1834 20.0644 25.2823C20.271 25.3655 20.5033 25.445 20.7538 25.5218V21.9602C20.1211 22.0952 19.4298 22.3835 19.0513 22.9361Z" fill="#FBFCFD"/>
<path d="M25.1385 31.0208C25.1334 31.03 25.1278 31.0396 25.1223 31.0498C25.1287 31.038 25.1338 31.0293 25.1385 31.0208Z" fill="#FBFCFD"/>
<path d="M25.1592 30.9839C25.1606 30.9814 25.1608 30.9812 25.1592 30.9839V30.9839Z" fill="#FBFCFD"/>
<path d="M24.305 9.57367C27.6521 6.76189 29.8887 0.427355 28.5123 0.150298C26.6835 -0.217974 22.7121 1.39685 20.7926 1.68136C18.0701 2.01008 15.1048 -1.27092 13.4404 0.557912C12.0871 2.04487 14.4106 7.45246 18.0458 9.80828C7.2004 15.1386 -8.04357 41.8975 18.5503 43.8391C55.3476 46.5257 36.9219 14.768 24.305 9.57367ZM27.4652 30.677C27.352 31.7202 26.7991 32.6636 25.9727 33.304C25.1001 33.9803 24.0057 34.2949 22.9182 34.383V35.5356C22.9182 35.844 22.7836 36.1423 22.5527 36.3465C22.2353 36.6273 21.769 36.6965 21.3839 36.5191C21.0036 36.3441 20.7538 35.9541 20.7538 35.5356V34.2758C20.5673 34.2404 20.3822 34.1983 20.1992 34.148C19.1829 33.8688 18.2403 33.3245 17.5517 32.5192C17.2086 32.1178 16.929 31.6624 16.7356 31.1707C16.6851 31.0422 16.64 30.9114 16.6006 30.779C16.5649 30.6593 16.528 30.5375 16.5153 30.4126C16.4938 30.2032 16.5354 29.9895 16.633 29.8029C16.8336 29.4191 17.2565 29.1873 17.6882 29.2258C18.1131 29.2635 18.4855 29.5584 18.6193 29.9634C18.6605 30.0882 18.6885 30.216 18.7347 30.3394C18.7806 30.462 18.836 30.5812 18.9011 30.6947C19.0297 30.9181 19.1908 31.1241 19.3763 31.3029C19.7588 31.6714 20.2459 31.9109 20.7538 32.0533V27.771C19.7608 27.5139 18.7358 27.1818 17.9158 26.5443C17.5173 26.2343 17.1791 25.8492 16.9577 25.3933C16.724 24.9122 16.6272 24.3762 16.6233 23.8438C16.6192 23.3032 16.7219 22.7675 16.9474 22.2749C17.1586 21.8138 17.4627 21.3998 17.8355 21.0566C18.6328 20.3228 19.6917 19.9135 20.7539 19.7632V19.669V18.5667C20.7539 18.2583 20.8886 17.9599 21.1194 17.7558C21.4369 17.4751 21.903 17.4057 22.2882 17.5832C22.6684 17.7583 22.9184 18.1482 22.9184 18.5667V19.669V19.7567C23.0599 19.7745 23.201 19.7958 23.3414 19.8213C24.3844 20.01 25.4045 20.4407 26.1673 21.1927C26.5286 21.5489 26.8244 21.9732 27.0324 22.436C27.0905 22.5652 27.1413 22.6973 27.1853 22.832C27.2263 22.9575 27.2675 23.0869 27.2871 23.2179C27.3184 23.4272 27.2865 23.6434 27.1969 23.8348C27.0134 24.227 26.602 24.4767 26.1691 24.4582C25.7438 24.4396 25.3584 24.1627 25.2061 23.7651C25.1608 23.6469 25.1381 23.5217 25.0918 23.4038C25.0452 23.2844 24.9847 23.1705 24.915 23.0629C24.7796 22.8538 24.6041 22.6745 24.4038 22.5267C23.9699 22.2064 23.4438 22.0395 22.918 21.9462V26.0443C23.5429 26.1939 24.1682 26.3571 24.7669 26.5932C25.6716 26.9499 26.529 27.497 27.0229 28.3596C26.9462 28.2253 26.8717 28.0943 27.0255 28.3641C27.1764 28.6292 27.1043 28.5028 27.0286 28.37C27.4215 29.0624 27.5506 29.8904 27.4652 30.677Z" fill="#FBFCFD"/>
<path d="M25.1063 31.0778C25.1 31.0891 25.0945 31.099 25.0902 31.1066C25.0939 31.1001 25.0995 31.0902 25.1063 31.0778Z" fill="#FBFCFD"/>
</g>
<defs>
<clipPath id="clip0">
<rect width="44" height="44" fill="white"/>
</clipPath>
</defs>
</svg>
